<svg width="21" height="14" viewBox="0 0 21 14" fill="none" xmlns="http://www.w3.org/2000/svg">
<path d="M19.1681 5.75714C19.405 6.01964 19.5361 6.36068 19.5361 6.71429C19.5361 7.06789 19.405 7.40893 19.1681 7.67143C17.6681 9.28571 14.2538 12.4286 10.2681 12.4286C6.28234 12.4286 2.86806 9.28571 1.36806 7.67143C1.13114 7.40893 1 7.06789 1 6.71429C1 6.36068 1.13114 6.01964 1.36806 5.75714C2.86806 4.14286 6.28234 1 10.2681 1C14.2538 1 17.6681 4.14286 19.1681 5.75714Z" stroke="black" stroke-width="2" stroke-linecap="round" stroke-linejoin="round"/>
<path d="M10.268 9.57171C11.846 9.57171 13.1252 8.29252 13.1252 6.71456C13.1252 5.13661 11.846 3.85742 10.268 3.85742C8.69008 3.85742 7.41089 5.13661 7.41089 6.71456C7.41089 8.29252 8.69008 9.57171 10.268 9.57171Z" stroke="black" stroke-width="2" stroke-linecap="round" stroke-linejoin="round"/>
</svg>
