<svg width="16" height="20" viewBox="0 0 16 20" fill="none" xmlns="http://www.w3.org/2000/svg">
<path d="M13 10C14.6569 10 16 11.3431 16 13C16 15.2322 15.0821 17.0205 13.5757 18.2296C12.0932 19.4196 10.1062 20 8 20C5.89384 20 3.90684 19.4196 2.4243 18.2296C0.91794 17.0205 0 15.2322 0 13C0 11.4407 1.18975 10.1591 2.71104 10.0137L2.99996 10H13ZM13 12H2.99996C2.44774 12 2 12.4477 2 13C2 14.6338 2.64906 15.8455 3.6762 16.6699C4.72716 17.5135 6.24016 18 8 18C9.75984 18 11.2728 17.5135 12.3238 16.6699C13.3509 15.8455 14 14.6338 14 13C14 12.5091 13.6462 12.1008 13.1798 12.0161L13 12ZM8 0C10.2091 0 12 1.79086 12 4C12 6.20914 10.2091 8 8 8C5.79086 8 4 6.20914 4 4C4 1.79086 5.79086 0 8 0ZM8 2C6.89544 2 6 2.89544 6 4C6 5.10456 6.89544 6 8 6C9.10456 6 10 5.10456 10 4C10 2.89544 9.10456 2 8 2Z" fill="black"/>
</svg>
