<svg width="20" height="17" viewBox="0 0 20 17" fill="none" xmlns="http://www.w3.org/2000/svg">
<path d="M0 5.06345V13.3333C0 15.1743 1.49238 16.6667 3.33333 16.6667H16.6667C18.5077 16.6667 20 15.1743 20 13.3333V3.33333C20 1.49238 18.5077 0 16.6667 0H3.33333C1.49238 0 0 1.49238 0 3.33333V5.06345ZM3.33333 1.66667H16.6667C17.5872 1.66667 18.3333 2.41287 18.3333 3.33333V4.56645L10.0002 9.05353L1.66667 4.56627V3.33333C1.66667 2.41287 2.41287 1.66667 3.33333 1.66667ZM1.66667 6.4592L9.60508 10.7337C9.85173 10.8665 10.1486 10.8665 10.3953 10.7337L18.3333 6.45937V13.3333C18.3333 14.2538 17.5872 15 16.6667 15H3.33333C2.41287 15 1.66667 14.2538 1.66667 13.3333V6.4592Z" fill="black"/>
</svg>
