<svg width="16" height="20" viewBox="0 0 16 20" fill="none" xmlns="http://www.w3.org/2000/svg">
<mask id="path-1-inside-1_33_182" fill="white">
<path d="M4 6V4C4 1.79086 5.79086 0 8 0C10.2091 0 12 1.79086 12 4V6H14C15.1046 6 16 6.89544 16 8V18C16 19.1046 15.1046 20 14 20H2C0.89544 20 0 19.1046 0 18V8C0 6.89544 0.89544 6 2 6H4ZM6 4V6H10V4C10 2.89544 9.10456 2 8 2C6.89544 2 6 2.89544 6 4ZM2 18H14V8H2V18Z"/>
</mask>
<path d="M4 6V21.7719H19.7719V6H4ZM12 6H-3.77188V21.7719H12V6ZM6 6H-9.77188V21.7719H6V6ZM10 6V21.7719H25.7719V6H10ZM2 18H-13.7719V33.7719H2V18ZM14 18V33.7719H29.7719V18H14ZM14 8H29.7719V-7.77188H14V8ZM2 8V-7.77188H-13.7719V8H2ZM19.7719 6V4H-11.7719V6H19.7719ZM19.7719 4C19.7719 10.5014 14.5014 15.7719 8 15.7719V-15.7719C-2.91971 -15.7719 -11.7719 -6.91971 -11.7719 4H19.7719ZM8 15.7719C1.49857 15.7719 -3.77188 10.5014 -3.77188 4H27.7719C27.7719 -6.91971 18.9197 -15.7719 8 -15.7719V15.7719ZM-3.77188 4V6H27.7719V4H-3.77188ZM12 21.7719H14V-9.77188H12V21.7719ZM14 21.7719C6.39399 21.7719 0.228117 15.606 0.228117 8H31.7719C31.7719 -1.81513 23.8151 -9.77188 14 -9.77188V21.7719ZM0.228117 8V18H31.7719V8H0.228117ZM0.228117 18C0.228117 10.3938 6.39419 4.22812 14 4.22812V35.7719C23.8149 35.7719 31.7719 27.8154 31.7719 18H0.228117ZM14 4.22812H2V35.7719H14V4.22812ZM2 4.22812C9.60581 4.22812 15.7719 10.3938 15.7719 18H-15.7719C-15.7719 27.8154 -7.81493 35.7719 2 35.7719V4.22812ZM15.7719 18V8H-15.7719V18H15.7719ZM15.7719 8C15.7719 15.606 9.60601 21.7719 2 21.7719V-9.77188C-7.81513 -9.77188 -15.7719 -1.81513 -15.7719 8H15.7719ZM2 21.7719H4V-9.77188H2V21.7719ZM-9.77188 4V6H21.7719V4H-9.77188ZM6 21.7719H10V-9.77188H6V21.7719ZM25.7719 6V4H-5.77188V6H25.7719ZM25.7719 4C25.7719 -5.81513 17.8151 -13.7719 8 -13.7719V17.7719C0.39399 17.7719 -5.77188 11.606 -5.77188 4H25.7719ZM8 -13.7719C-1.81513 -13.7719 -9.77188 -5.81513 -9.77188 4H21.7719C21.7719 11.606 15.606 17.7719 8 17.7719V-13.7719ZM2 33.7719H14V2.22812H2V33.7719ZM29.7719 18V8H-1.77188V18H29.7719ZM14 -7.77188H2V23.7719H14V-7.77188ZM-13.7719 8V18H17.7719V8H-13.7719Z" fill="#FF3F40" mask="url(#path-1-inside-1_33_182)"/>
</svg>
