<svg width="20" height="17" viewBox="0 0 20 17" fill="none" xmlns="http://www.w3.org/2000/svg">
<mask id="path-1-inside-1_33_158" fill="white">
<path d="M0 5.06345V13.3333C0 15.1743 1.49238 16.6667 3.33333 16.6667H16.6667C18.5077 16.6667 20 15.1743 20 13.3333V3.33333C20 1.49238 18.5077 0 16.6667 0H3.33333C1.49238 0 0 1.49238 0 3.33333V5.06345ZM3.33333 1.66667H16.6667C17.5872 1.66667 18.3333 2.41287 18.3333 3.33333V4.56645L10.0002 9.05353L1.66667 4.56627V3.33333C1.66667 2.41287 2.41287 1.66667 3.33333 1.66667ZM1.66667 6.4592L9.60508 10.7337C9.85173 10.8665 10.1486 10.8665 10.3953 10.7337L18.3333 6.45937V13.3333C18.3333 14.2538 17.5872 15 16.6667 15H3.33333C2.41287 15 1.66667 14.2538 1.66667 13.3333V6.4592Z"/>
</mask>
<path d="M18.3333 4.56645L23.3183 13.8242L28.8479 10.8468V4.56645H18.3333ZM10.0002 9.05353L5.0152 18.3113L10.0002 20.9955L14.9851 18.3113L10.0002 9.05353ZM1.66667 4.56627H-8.84792V10.8466L-3.3183 13.8241L1.66667 4.56627ZM1.66667 6.4592L6.65163 -2.79859L-8.84792 -11.1445V6.4592H1.66667ZM9.60508 10.7337L4.62012 19.9915L4.62045 19.9917L9.60508 10.7337ZM10.3953 10.7337L15.3799 19.9917L15.3802 19.9915L10.3953 10.7337ZM18.3333 6.45937H28.8479V-11.1444L13.3484 -2.79842L18.3333 6.45937ZM-10.5146 5.06345V13.3333H10.5146V5.06345H-10.5146ZM-10.5146 13.3333C-10.5146 20.9815 -4.31456 27.1813 3.33333 27.1813V6.15208C7.29933 6.15208 10.5146 9.36718 10.5146 13.3333H-10.5146ZM3.33333 27.1813H16.6667V6.15208H3.33333V27.1813ZM16.6667 27.1813C24.3147 27.1813 30.5146 20.9814 30.5146 13.3333H9.48541C9.48541 9.36729 12.7006 6.15208 16.6667 6.15208V27.1813ZM30.5146 13.3333V3.33333H9.48541V13.3333H30.5146ZM30.5146 3.33333C30.5146 -4.31456 24.3148 -10.5146 16.6667 -10.5146V10.5146C12.7005 10.5146 9.48541 7.29933 9.48541 3.33333H30.5146ZM16.6667 -10.5146H3.33333V10.5146H16.6667V-10.5146ZM3.33333 -10.5146C-4.31466 -10.5146 -10.5146 -4.31466 -10.5146 3.33333H10.5146C10.5146 7.29943 7.29943 10.5146 3.33333 10.5146V-10.5146ZM-10.5146 3.33333V5.06345H10.5146V3.33333H-10.5146ZM3.33333 12.1813H16.6667V-8.84792H3.33333V12.1813ZM16.6667 12.1813C11.78 12.1813 7.81874 8.21978 7.81874 3.33333H28.8479C28.8479 -3.39404 23.3943 -8.84792 16.6667 -8.84792V12.1813ZM7.81874 3.33333V4.56645H28.8479V3.33333H7.81874ZM13.3484 -4.69134L5.01521 -0.20426L14.9851 18.3113L23.3183 13.8242L13.3484 -4.69134ZM14.9851 -0.204258L6.65163 -4.69153L-3.3183 13.8241L5.0152 18.3113L14.9851 -0.204258ZM12.1813 4.56627V3.33333H-8.84792V4.56627H12.1813ZM12.1813 3.33333C12.1813 8.21991 8.21991 12.1813 3.33333 12.1813V-8.84792C-3.39418 -8.84792 -8.84792 -3.39418 -8.84792 3.33333H12.1813ZM-3.3183 15.717L4.62012 19.9915L14.59 1.47594L6.65163 -2.79859L-3.3183 15.717ZM4.62045 19.9917C7.979 21.8 12.0213 21.8 15.3799 19.9917L5.41062 1.47576C8.27586 -0.0669276 11.7245 -0.0669276 14.5897 1.47576L4.62045 19.9917ZM15.3802 19.9915L23.3183 15.7172L13.3484 -2.79842L5.41027 1.47595L15.3802 19.9915ZM7.81874 6.45937V13.3333H28.8479V6.45937H7.81874ZM7.81874 13.3333C7.81874 8.44679 11.7801 4.48541 16.6667 4.48541V25.5146C23.3942 25.5146 28.8479 20.0609 28.8479 13.3333H7.81874ZM16.6667 4.48541H3.33333V25.5146H16.6667V4.48541ZM3.33333 4.48541C8.21978 4.48541 12.1813 8.44665 12.1813 13.3333H-8.84792C-8.84792 20.061 -3.39404 25.5146 3.33333 25.5146V4.48541ZM12.1813 13.3333V6.4592H-8.84792V13.3333H12.1813Z" fill="#FF3F40" mask="url(#path-1-inside-1_33_158)"/>
</svg>
