<svg width="19" height="20" viewBox="0 0 19 20" fill="none" xmlns="http://www.w3.org/2000/svg">
<path d="M11.8238 12.6492C12.6288 12.6492 13.2815 13.3026 13.2815 14.1086C13.2815 15.1946 12.8354 16.0646 12.1035 16.6528C11.3831 17.2318 10.4176 17.5141 9.39422 17.5141C8.37082 17.5141 7.40532 17.2318 6.68494 16.6528C5.95299 16.0646 5.50696 15.1946 5.50696 14.1086C5.50696 13.35 6.08507 12.7266 6.82427 12.6558L6.96466 12.6492H11.8238ZM11.8238 13.6221H6.96466C6.69633 13.6221 6.47877 13.84 6.47877 14.1086C6.47877 14.9035 6.79416 15.493 7.29325 15.894C7.80392 16.3044 8.5391 16.5411 9.39422 16.5411C10.2493 16.5411 10.9845 16.3044 11.4952 15.894C11.9943 15.493 12.3097 14.9035 12.3097 14.1086C12.3097 13.8698 12.1378 13.6712 11.9111 13.63L11.8238 13.6221ZM9.39422 7.78418C10.4677 7.78418 11.3379 8.65543 11.3379 9.73017C11.3379 10.8049 10.4677 11.6762 9.39422 11.6762C8.32078 11.6762 7.45059 10.8049 7.45059 9.73017C7.45059 8.65543 8.32078 7.78418 9.39422 7.78418ZM9.39422 8.75717C8.85751 8.75717 8.4224 9.1928 8.4224 9.73017C8.4224 10.2675 8.85751 10.7032 9.39422 10.7032C9.93093 10.7032 10.366 10.2675 10.366 9.73017C10.366 9.1928 9.93093 8.75717 9.39422 8.75717Z" fill="#D9D9D9"/>
<line x1="4.71118" y1="0.5" x2="4.71118" y2="3.39198" stroke="#D9D9D9" stroke-linecap="round"/>
<line x1="13.7815" y1="0.5" x2="13.7815" y2="3.39198" stroke="#D9D9D9" stroke-linecap="round"/>
<path d="M15.3443 1.29688C17.1129 1.29688 18.56 2.67492 18.6729 4.41705L18.68 4.63664V16.6598C18.68 18.4305 17.3036 19.8794 15.5636 19.9924L15.3443 19.9996H3.33572C1.56715 19.9996 0.120034 18.6215 0.00709532 16.8794L0 16.6598V4.63664C0 2.86592 1.37637 1.41705 3.11639 1.30398L3.33572 1.29688H15.3443ZM17.3457 6.6405H1.33429V16.6598C1.33429 17.7014 2.12804 18.5574 3.14296 18.6545L3.33572 18.6636H15.3443C16.3846 18.6636 17.2396 17.8689 17.3366 16.8528L17.3457 16.6598V6.6405ZM15.3443 2.63278H3.33572C2.29538 2.63278 1.44043 3.4275 1.34345 4.44365L1.33429 4.63664V5.30459H17.3457V4.63664C17.3457 3.59504 16.552 2.73905 15.537 2.64195L15.3443 2.63278Z" fill="#D9D9D9"/>
</svg>
