<svg width="16" height="20" viewBox="0 0 16 20" fill="none" xmlns="http://www.w3.org/2000/svg">
<path d="M1.54952 5.80186C1.26202 3.90651 2.59965 2.19993 4.64467 1.5745C5.39779 1.34417 6.20014 1.73948 6.47645 2.47699L7.13208 4.22703C7.34787 4.80303 7.19237 5.45236 6.7391 5.86813L4.78908 7.65679C4.59381 7.8359 4.5071 8.10561 4.56022 8.3652L4.57756 8.444C4.58833 8.49105 4.60419 8.55765 4.62558 8.64091C4.66832 8.80729 4.73339 9.04123 4.8245 9.31978C5.00574 9.87391 5.29472 10.6192 5.72469 11.3639C6.15467 12.1087 6.65562 12.7316 7.04489 13.1656C7.24057 13.3837 7.41065 13.5571 7.53335 13.6773C7.59477 13.7375 7.64451 13.7846 7.67987 13.8173L7.74042 13.8727C7.93867 14.0485 8.21463 14.1073 8.46738 14.0278L10.9914 13.2333C11.5781 13.0487 12.2181 13.2387 12.6092 13.7135L13.8032 15.164C14.3003 15.7678 14.2417 16.654 13.6698 17.1873C12.1051 18.6461 9.95378 18.9449 8.45628 17.7416C7.01262 16.5816 5.31362 14.8577 3.8943 12.4179C2.47168 9.97232 1.82759 7.63494 1.54952 5.80186ZM6.14055 8.46439L7.75891 6.97994C8.66547 6.1484 8.97646 4.84974 8.54488 3.69775L7.88925 1.94769C7.3333 0.463725 5.71884 -0.331689 4.20343 0.131767C1.66486 0.908141 -0.373449 3.18454 0.0578865 6.02812C0.359128 8.01399 1.05587 10.5389 2.59022 13.1764C4.11833 15.8034 5.9499 17.6631 7.51128 18.9176C9.75538 20.7208 12.7527 20.105 14.6987 18.2908C15.8536 17.2139 15.9716 15.4244 14.968 14.2052L13.7739 12.7547C12.9921 11.8049 11.712 11.4249 10.5385 11.7943L8.44371 12.4536C8.36315 12.3708 8.26982 12.2718 8.16804 12.1583C7.82386 11.7746 7.39334 11.2367 7.03127 10.6096C6.6692 9.98247 6.41868 9.34072 6.25844 8.85079C6.21105 8.70589 6.17198 8.57555 6.14055 8.46439Z" fill="black"/>
</svg>
