<svg width="22" height="22" viewBox="0 0 22 22" fill="none" xmlns="http://www.w3.org/2000/svg">
<path d="M16.3846 1H5.61538C3.06638 1 1 3.06638 1 5.61538V16.3846C1 18.9336 3.06638 21 5.61538 21H16.3846C18.9336 21 21 18.9336 21 16.3846V5.61538C21 3.06638 18.9336 1 16.3846 1Z" stroke="#000001" stroke-width="2" stroke-linecap="round" stroke-linejoin="round"/>
<path d="M6.38477 12.5386L9.53861 15.0617C9.62331 15.1314 9.72249 15.1814 9.82894 15.2081C9.93539 15.2347 10.0464 15.2372 10.154 15.2155C10.2626 15.1952 10.3655 15.1516 10.4558 15.0879C10.546 15.0242 10.6215 14.9418 10.6771 14.8463L15.6155 6.38477" stroke="#000001" stroke-width="2" stroke-linecap="round" stroke-linejoin="round"/>
</svg>
